<?xml version="1.0" encoding="UTF-8"?>
<!DOCTYPE svg PUBLIC "-//W3C//DTD SVG 1.1//EN" "http://www.w3.org/Graphics/SVG/1.1/DTD/svg11.dtd">
<!-- Creator: CorelDRAW 2019 (64-Bit) -->
<svg xmlns="http://www.w3.org/2000/svg" xml:space="preserve" width="34.798mm" height="34.798mm" version="1.1" style="shape-rendering:geometricPrecision; text-rendering:geometricPrecision; image-rendering:optimizeQuality; fill-rule:evenodd; clip-rule:evenodd"
viewBox="0 0 3479.8 3479.8"
 xmlns:xlink="http://www.w3.org/1999/xlink"
 xmlns:xodm="http://www.corel.com/coreldraw/odm/2003">
 <defs>
  <style type="text/css">
   <![CDATA[
    .fil0 {fill:#F9FAFF}
    .fil1 {fill:#F9FAFF;fill-rule:nonzero}
   ]]>
  </style>
 </defs>
 <g id="Слой_x0020_1">
  <metadata id="CorelCorpID_0Corel-Layer"/>
  <g>
   <path class="fil0" d="M1735.67 723.71c268.87,0 486.83,217.96 486.83,486.83 0,268.87 -217.96,486.83 -486.83,486.83 -268.87,0 -486.83,-217.96 -486.83,-486.83 0,-268.87 217.96,-486.83 486.83,-486.83zm170.64 316.19c-43.65,-43.65 -103.99,-70.66 -170.64,-70.66 -66.65,0 -126.99,27.01 -170.64,70.66 -43.65,43.65 -70.66,103.99 -70.66,170.64 0,66.65 27.01,126.99 70.66,170.64 43.65,43.65 103.99,70.66 170.64,70.66 66.65,0 126.99,-27.01 170.64,-70.66 43.65,-43.65 70.66,-103.99 70.66,-170.64 0,-66.65 -27.01,-126.99 -70.66,-170.64z"/>
  </g>
  <g>
   <path class="fil0" d="M1735.67 4.22c960.92,0 1739.9,778.98 1739.9,1739.9 0,960.92 -778.98,1739.9 -1739.9,1739.9 -960.92,0 -1739.9,-778.98 -1739.9,-1739.9 0,-960.92 778.98,-1739.9 1739.9,-1739.9zm1056.7 683.2c-270.41,-270.41 -644.02,-437.67 -1056.7,-437.67 -412.68,0 -786.29,167.26 -1056.7,437.67 -270.41,270.41 -437.67,644.02 -437.67,1056.7 0,412.68 167.26,786.29 437.67,1056.7 270.41,270.41 644.02,437.67 1056.7,437.67 412.68,0 786.29,-167.26 1056.7,-437.67 270.41,-270.41 437.67,-644.02 437.67,-1056.7 0,-412.68 -167.26,-786.29 -437.67,-1056.7z"/>
  </g>
  <g>
   <path class="fil1" d="M767.28 2919.45c-9.43,67.14 -71.51,113.92 -138.65,104.49 -67.14,-9.43 -113.92,-71.51 -104.49,-138.65l243.14 34.16zm968.38 -1087.34l0 245.54 0 0 -45.56 1.05 -45.02 3.1 -44.45 5.13 -43.86 7.09 -43.21 9.03 -42.52 10.91 -41.79 12.75 -41 14.56 -40.19 16.32 -39.31 18.03 -38.38 19.71 -37.4 21.34 -36.38 22.93 -35.3 24.49 -34.18 25.98 -33.01 27.46 -31.77 28.85 -30.48 30.22 -29.16 31.56 -27.78 32.84 -26.34 34.08 -24.86 35.26 -23.33 36.41 -21.75 37.51 -20.12 38.6 -18.45 39.6 -16.72 40.59 -14.95 41.53 -13.13 42.44 -11.26 43.32 -9.34 44.15 -7.38 44.96 -243.14 -34.16 9.2 -56.08 11.68 -55.17 14.08 -54.18 16.43 -53.14 18.73 -52.01 20.94 -50.85 23.11 -49.62 25.2 -48.32 27.23 -46.99 29.21 -45.59 31.1 -44.12 32.96 -42.62 34.72 -41.06 36.46 -39.46 38.12 -37.8 39.71 -36.07 41.25 -34.3 42.72 -32.48 44.14 -30.61 45.5 -28.69 46.8 -26.7 48.04 -24.67 49.21 -22.57 50.29 -20.42 51.38 -18.24 52.35 -15.97 53.26 -13.67 54.11 -11.29 54.9 -8.89 55.63 -6.41 56.26 -3.88 56.8 -1.31 0 0zm1211.53 1053.17l-243.14 34.18 -7.38 -44.97 -9.34 -44.15 -11.26 -43.31 -13.14 -42.45 -14.94 -41.53 -16.73 -40.59 -18.45 -39.61 -20.11 -38.58 -21.76 -37.52 -23.32 -36.41 -24.87 -35.26 -26.33 -34.08 -27.79 -32.84 -29.15 -31.56 -30.48 -30.22 -31.78 -28.86 -33 -27.45 -34.17 -25.98 -35.32 -24.49 -36.38 -22.93 -37.4 -21.34 -38.39 -19.72 -39.29 -18.02 -40.19 -16.32 -41.02 -14.56 -41.77 -12.75 -42.53 -10.91 -43.21 -9.03 -43.86 -7.09 -44.45 -5.13 -45.01 -3.1 -45.57 -1.05 0 -245.54 56.81 1.31 56.25 3.88 55.63 6.41 54.9 8.89 54.11 11.29 53.27 13.67 52.35 15.97 51.36 18.24 50.31 20.42 49.21 22.58 48.03 24.66 46.8 26.7 45.5 28.69 44.14 30.61 42.73 32.48 41.24 34.31 39.7 36.06 38.14 37.8 36.45 39.46 34.73 41.06 32.95 42.62 31.11 44.12 29.2 45.59 27.24 46.98 25.21 48.34 23.09 49.61 20.95 50.85 18.72 52.01 16.44 53.13 14.08 54.19 11.68 55.17 9.2 56.07zm0 0c9.43,67.14 -37.34,129.23 -104.48,138.66 -67.14,9.43 -129.23,-37.34 -138.66,-104.48l243.14 -34.18z"/>
  </g>
 </g>
</svg>
