<svg xmlns="http://www.w3.org/2000/svg" xmlns:xlink="http://www.w3.org/1999/xlink" width="411" height="476" viewBox="0 0 411 476">
  <defs>
    <clipPath id="a">
      <circle cx="205.5" cy="205.5" r="205.5" style="fill: none"/>
    </clipPath>
  </defs>
  <g style="clip-path: url(#a)">
    <path d="M205,245A101,101,0,1,1,104,346,101.114,101.114,0,0,1,205,245m0-29A130,130,0,1,0,335,346,130,130,0,0,0,205,216Z" style="fill: #f9faff"/>
  </g>
  <path d="M205.5,114A28.5,28.5,0,1,1,177,142.5,28.532,28.532,0,0,1,205.5,114m0-29A57.5,57.5,0,1,0,263,142.5,57.5,57.5,0,0,0,205.5,85Z" style="fill: #f9faff"/>
  <path d="M205.5,29A176.5,176.5,0,0,1,330.3,330.3,176.5,176.5,0,1,1,80.7,80.7,175.341,175.341,0,0,1,205.5,29m0-29C92.006,0,0,92.006,0,205.5S92.006,411,205.5,411,411,319,411,205.5,319,0,205.5,0Z" style="fill: #f9faff"/>
</svg>
