<?xml version="1.0" encoding="UTF-8"?>
<!DOCTYPE svg PUBLIC "-//W3C//DTD SVG 1.1//EN" "http://www.w3.org/Graphics/SVG/1.1/DTD/svg11.dtd">
<!-- Creator: CorelDRAW 2019 (64-Bit) -->
<svg xmlns="http://www.w3.org/2000/svg" xml:space="preserve" width="34.798mm" height="34.798mm" version="1.1" style="shape-rendering:geometricPrecision; text-rendering:geometricPrecision; image-rendering:optimizeQuality; fill-rule:evenodd; clip-rule:evenodd"
viewBox="0 0 3479.8 3479.8"
 xmlns:xlink="http://www.w3.org/1999/xlink"
 xmlns:xodm="http://www.corel.com/coreldraw/odm/2003">
 <defs>
  <style type="text/css">
   <![CDATA[
    .fil0 {fill:none}
   ]]>
  </style>
 </defs>
 <g id="Слой_x0020_1">
  <metadata id="CorelCorpID_0Corel-Layer"/>
  <path class="fil0" d="M1735.67 723.71c268.87,0 486.83,217.96 486.83,486.83 0,268.87 -217.96,486.83 -486.83,486.83 -268.87,0 -486.83,-217.96 -486.83,-486.83 0,-268.87 217.96,-486.83 486.83,-486.83z"/>
  <path class="fil0" d="M1735.67 126.99c893.12,0 1617.13,724.01 1617.13,1617.13 0,893.12 -724.01,1617.13 -1617.13,1617.13 -893.12,0 -1617.13,-724.01 -1617.13,-1617.13 0,-893.12 724.01,-1617.13 1617.13,-1617.13z"/>
  <path class="fil0" d="M645.71 2902.37c76.36,-543.36 541.26,-947.49 1089.95,-947.49 548.7,0 1013.59,404.13 1089.96,947.49"/>
 </g>
</svg>
